HIERARCHY
ROOT Bip001_Pelvis
{
  OFFSET 34.4345 95.6767 -26.8758
  CHANNELS 6 Xposition Yposition Zposition Zrotation Xrotation Yrotation
  JOINT Bip001_Spine
  {
    OFFSET 1.4188e-005 10.2191 -0.0116013
    CHANNELS 3 Zrotation Xrotation Yrotation
    JOINT Bip001_L_Thigh
    {
      OFFSET 11.0458 -10.2192 0.0116197
      CHANNELS 3 Zrotation Xrotation Yrotation
      JOINT Bip001_L_Calf
      {
        OFFSET -0.707118 -44.0221 0.360014
        CHANNELS 3 Zrotation Xrotation Yrotation
        JOINT Bip001_L_Foot
        {
          OFFSET -0.651902 -40.5938 -3.56146
          CHANNELS 3 Zrotation Xrotation Yrotation
          JOINT Bip001_L_Toe0
          {
            OFFSET 0.0530839 -10.2181 13.1504
            CHANNELS 3 Zrotation Xrotation Yrotation
            End Site
            {
              OFFSET -1.02532e-005 0 7.55606
            }
          }
        }
      }
    }
    JOINT Bip001_R_Thigh
    {
      OFFSET -11.0458 -10.2191 0.0115893
      CHANNELS 3 Zrotation Xrotation Yrotation
      JOINT Bip001_R_Calf
      {
        OFFSET 0.706994 -44.0221 0.35984
        CHANNELS 3 Zrotation Xrotation Yrotation
        JOINT Bip001_R_Foot
        {
          OFFSET 0.651786 -40.5938 -3.5613
          CHANNELS 3 Zrotation Xrotation Yrotation
          JOINT Bip001_R_Toe0
          {
            OFFSET -0.0531479 -10.2181 13.1504
            CHANNELS 3 Zrotation Xrotation Yrotation
            End Site
            {
              OFFSET -1.02894e-005 0 7.55606
            }
          }
        }
      }
    }
    JOINT Bip001_Spine1
    {
      OFFSET 1.87041e-005 14.5736 1.08638
      CHANNELS 3 Zrotation Xrotation Yrotation
      JOINT Bip001_Spine2
      {
        OFFSET 2.24614e-005 14.5058 -1.69078
        CHANNELS 3 Zrotation Xrotation Yrotation
        JOINT Bip001_Neck
        {
          OFFSET 2.20278e-005 15.3945 -0.489414
          CHANNELS 3 Zrotation Xrotation Yrotation
          JOINT Bip001_L_Clavicle
          {
            OFFSET 6.06036 -0.000579998 0.00836775
            CHANNELS 3 Zrotation Xrotation Yrotation
            JOINT Bip001_L_UpperArm
            {
              OFFSET 11.5509 -0.0600302 0.00193952
              CHANNELS 3 Zrotation Xrotation Yrotation
              JOINT Bip001_L_Forearm
              {
                OFFSET 25.9523 0.0806089 -2.15551
                CHANNELS 3 Zrotation Xrotation Yrotation
                JOINT Bip001_L_Hand
                {
                  OFFSET 32.2475 0.153767 1.63968
                  CHANNELS 3 Zrotation Xrotation Yrotation
                  JOINT Bip001_L_Finger0
                  {
                    OFFSET 6.04639 -2.20976 5.90322
                    CHANNELS 3 Zrotation Xrotation Yrotation
                    End Site
                    {
                      OFFSET 4.22375 -1.43895 0.606485
                    }
                  }
                  JOINT Bip001_L_Finger1
                  {
                    OFFSET 11.0826 -0.704819 -0.198153
                    CHANNELS 3 Zrotation Xrotation Yrotation
                    End Site
                    {
                      OFFSET 6.20027 -0.397518 -0.0787166
                    }
                  }
                }
              }
            }
          }
          JOINT Bip001_R_Clavicle
          {
            OFFSET -6.06037 -0.000563197 0.00835105
            CHANNELS 3 Zrotation Xrotation Yrotation
            JOINT Bip001_R_UpperArm
            {
              OFFSET -11.5509 -0.0599978 0.00190698
              CHANNELS 3 Zrotation Xrotation Yrotation
              JOINT Bip001_R_Forearm
              {
                OFFSET -25.9523 0.0806822 -2.15589
                CHANNELS 3 Zrotation Xrotation Yrotation
                JOINT Bip001_R_Hand
                {
                  OFFSET -32.2475 0.153859 1.63989
                  CHANNELS 3 Zrotation Xrotation Yrotation
                  JOINT Bip001_R_Finger0
                  {
                    OFFSET -6.04641 -2.20976 5.90317
                    CHANNELS 3 Zrotation Xrotation Yrotation
                    End Site
                    {
                      OFFSET -4.22376 -1.43895 0.60647
                    }
                  }
                  JOINT Bip001_R_Finger1
                  {
                    OFFSET -11.0826 -0.704794 -0.198182
                    CHANNELS 3 Zrotation Xrotation Yrotation
                    End Site
                    {
                      OFFSET -6.20028 -0.397504 -0.0787333
                    }
                  }
                }
              }
            }
          }
          JOINT Bip001_Head
          {
            OFFSET 1.09673e-005 11.2744 2.05948
            CHANNELS 3 Zrotation Xrotation Yrotation
            End Site
            {
              OFFSET 2.89576e-005 20.8808 -2.77728e-005
            }
          }
        }
      }
    }
  }
}
MOTION
Frames:	8
Frame Time:	0.04
31.5178 95.7799 -31.0123 0.454239 -1.317 -6.48154 0.248813 2.58818 -0.675511 5.39964 -0.00638043 13.3966 0.217243 5.83269 1.50683 1.25258 -2.44721 -0.0265029 0.912725 -5.35377 -0.0038115 -4.11266 -5.33707 -1.8168 0.246393 11.9823 0.0975825 -4.18529 -9.70045 3.96915 1.86178 -6.50781 2.07799 0.529003 5.17323 -1.36439 0.529006 5.17324 -1.3644 2.49649 -2.32187 1.49828 -24.3122 4.94225 -4.72211 -50.3961 38.5653 -1.17106 14.6616 -8.45245 -30.5745 10.2518 1.00665 -3.64525 -1.27222e-014 -3.18055e-015 6.36111e-015 -1.27222e-014 -6.36111e-015 3.18055e-015 25.2401 9.60982 18.1411 66.0023 24.8828 -18.5436 -18.9792 -10.7728 12.5483 -1.75502 -2.62419 -15.2816 -3.18055e-015 6.36111e-015 -3.18055e-015 -7.95139e-016 3.18056e-015 -3.18055e-015 -0.781183 -0.0408737 2.32447 
31.3444 95.8084 -30.9273 0.322644 -1.53427 -6.99847 0.304019 2.55524 -0.749627 5.44333 0.628635 13.4293 0.285566 5.41641 2.11926 0.831166 -2.3447 -0.0264259 0.859765 -5.16169 -0.0148939 -3.95322 -5.04635 -1.74123 0.181619 11.851 0.229828 -4.10816 -9.65608 4.31915 1.79627 -6.32808 2.06558 0.641275 5.10625 -1.51504 0.641873 5.10624 -1.51501 2.53489 -2.34258 2.05846 -24.1871 5.15603 -5.13668 -51.4918 37.6822 -0.826606 14.9732 -7.88285 -31.4757 10.3066 0.782369 -4.70829 0 3.18055e-015 -0 3.18055e-015 0 3.18055e-015 24.1873 8.46566 15.4522 67.9525 25.6461 -19.2558 -19.034 -10.9529 11.6478 3.18143 -5.11375 -11.9691 -4.77083e-015 -3.18055e-015 -3.18055e-015 -3.18055e-015 -3.18056e-015 -3.18055e-015 -0.658584 -0.862047 2.85414 
31.1883 95.7794 -30.8844 0.223707 -1.82398 -7.40111 0.305298 2.55002 -0.817682 5.5113 1.03185 15.2985 0.523676 5.45908 0.61528 0.996107 -2.21327 -0.0259382 1.0065 -5.40989 -0.139789 -3.7441 -5.01076 -0.506744 0.330447 12.3003 0.213364 -4.45959 -9.7446 3.628 1.77729 -6.25851 2.02533 0.64769 5.09535 -1.65141 0.647866 5.0954 -1.65141 2.9556 -2.10389 2.54654 -24.4679 5.19294 -5.85987 -51.7799 36.5615 -0.71093 14.6637 -6.18812 -32.2946 10.7357 0.659696 -4.84086 7.06225e-031 -6.36111e-015 6.36111e-015 3.53113e-031 -6.36111e-015 3.18055e-015 23.6381 7.43384 13.317 68.0477 25.4508 -19.5454 -19.9324 -5.98333 12.1757 8.22992 -7.92533 -5.518 -2.38542e-015 -6.36111e-015 -0 -7.95139e-016 -6.36111e-015 -0 -0.826399 -1.40766 3.48869 
31.0616 95.7462 -30.8733 0.140461 -2.15025 -7.85882 0.305464 2.57964 -0.896539 5.52058 1.44727 16.1921 0.712705 5.47178 0.135273 0.901747 -2.28758 -0.0252628 0.939156 -5.42001 -0.0507698 -3.60017 -5.00917 0.971433 0.586573 12.7607 0.102638 -4.85202 -9.8191 2.8673 1.79569 -6.29579 2.02026 0.653678 5.15414 -1.80966 0.652995 5.15415 -1.80969 3.42758 -1.51039 3.13414 -24.742 4.97244 -6.89757 -52.7173 36.9407 0.278406 14.9521 -5.80757 -32.9371 10.8368 0.46449 -5.27019 -6.36111e-015 3.18055e-015 1.59028e-015 -6.36111e-015 3.18056e-015 1.59028e-015 23.3322 6.39042 11.9862 67.3424 25.1862 -19.6974 -21.5222 -0.351561 13.6391 10.7171 -9.27065 0.883454 -7.95139e-016 -3.18055e-015 3.18055e-015 8.82782e-032 -3.18056e-015 1.59028e-015 -1.48221 -2.39219 4.3455 
30.937 95.7235 -30.8705 -0.0791688 -2.50288 -8.28438 0.371072 2.65046 -1.02401 5.69378 1.80552 15.6945 0.586785 5.63864 1.01317 1.04179 -2.32914 -0.0247017 0.964939 -5.40301 -0.107077 -3.41244 -4.84194 1.79761 0.718313 12.8941 0.0666943 -5.03971 -9.82174 2.6068 1.79082 -6.29569 2.03411 0.790831 5.2938 -2.06851 0.790834 5.29381 -2.06852 3.164 -1.4129 3.82048 -24.3877 5.17025 -7.64039 -53.5125 37.7157 1.02628 15.2979 -5.47643 -32.9387 10.4116 0.219657 -5.58627 -6.36111e-015 -3.18055e-015 -3.18055e-015 -9.54166e-015 0 -0 23.3507 5.93401 11.3131 67.1688 25.2711 -19.6312 -23.7436 4.46576 15.7659 9.43107 -9.5824 4.3961 5.96354e-016 0 -1.59028e-015 1.98785e-016 6.36111e-015 -7.95139e-016 -1.43979 -2.88264 4.93912 
30.8608 95.6713 -30.878 -0.28603 -2.93489 -8.68514 0.441831 2.7574 -1.1041 5.89435 2.02629 16.1887 0.457528 6.15085 0.664366 1.16536 -2.46601 -0.0310577 0.872515 -5.75995 0.0285945 -3.29621 -4.72131 2.43084 0.810212 13.227 0.0961655 -5.16839 -9.92289 2.45608 1.80946 -6.34172 2.03498 0.93789 5.50568 -2.23382 0.938164 5.50569 -2.23355 3.11764 -1.03532 4.4854 -24.4507 5.22353 -8.76616 -53.7466 38.4934 1.394 15.3915 -4.97041 -32.4326 9.27202 -0.021561 -5.49648 3.18055e-015 0 -3.18055e-015 0 0 -1.59028e-015 23.0259 5.3717 11.1074 67.4242 25.2304 -19.4059 -26.7696 8.09779 18.3883 5.90873 -9.90431 4.69651 5.96354e-016 0 -3.97569e-016 1.78906e-015 0 -1.98785e-016 -1.95847 -3.51063 5.69562 
30.8179 95.6366 -30.9131 -0.46052 -3.08973 -9.15658 0.457617 2.78113 -1.10107 6.14646 2.04104 16.1306 0.225366 6.68818 1.22906 1.91769 -2.52226 -0.0524917 1.14395 -6.03347 -0.0997976 -3.14415 -4.66411 2.87107 0.857689 13.2427 0.103112 -5.25541 -9.9531 2.44538 1.84891 -6.46358 2.06984 0.96925 5.55284 -2.22835 0.970481 5.55285 -2.22829 2.96111 -0.714665 5.00981 -24.4532 5.24894 -9.66326 -53.4838 39.6123 1.80748 15.5348 -4.05737 -31.6343 8.64671 0.336761 -5.50015 6.36111e-015 0 -1.59028e-015 6.36111e-015 3.18056e-015 -0 23.1377 4.81622 10.6421 67.738 25.5911 -19.218 -29.1493 7.33546 20.4863 4.16518 -11.0604 5.15425 -7.95139e-016 -6.36111e-015 -7.95139e-016 7.95139e-016 0 -7.95139e-016 -2.12526 -3.85844 6.19213 
30.8382 95.5923 -30.9371 -0.543793 -3.06493 -9.49374 0.436405 2.73394 -1.05722 6.40359 1.7905 16.1782 0.034018 7.51261 1.41199 1.8513 -3.07954 -0.0417447 1.04005 -5.93347 0.0450631 -3.07438 -4.76993 2.83785 0.845296 13.4145 0.0828505 -5.21691 -10.0865 2.73427 1.88121 -6.56984 2.10766 0.927699 5.45926 -2.13886 0.925685 5.45926 -2.13897 2.18544 -1.51583 5.50491 -23.5531 6.02935 -9.53839 -53.5226 41.0585 2.05263 16.0335 -2.93571 -30.5027 7.60158 0.665682 -5.1469 -3.18055e-015 -3.18055e-015 3.18055e-015 -6.36111e-015 -3.18056e-015 1.59028e-015 24.3018 5.20351 9.58997 67.2901 23.6853 -18.9554 -30.3932 3.75404 22.8286 3.33807 -11.4843 5.88441 7.95139e-016 3.18055e-015 1.59028e-015 7.95139e-016 3.18056e-015 1.59028e-015 -1.39507 -2.82164 6.3276 
